<svg width="182" height="40" viewBox="0 0 182 40" fill="none" xmlns="http://www.w3.org/2000/svg">
<g clip-path="url(#clip0)">
<path d="M75.7674 23.9821C75.724 23.8761 75.6619 23.7016 75.575 23.4648C75.4881 23.228 75.4012 22.9413 75.3205 22.611C75.2336 22.2807 75.1653 21.913 75.1094 21.5141C75.0536 21.1215 75.0288 20.7039 75.0288 20.2739V14.5277C75.0288 13.4059 74.917 12.3901 74.6936 11.5113C74.4701 10.6263 74.0976 9.85977 73.5948 9.24278C73.0858 8.61955 72.4154 8.13967 71.5899 7.80936C70.7767 7.48528 69.7773 7.32324 68.6289 7.32324C67.1826 7.32324 65.8915 7.67225 64.7865 8.37026C63.6816 9.06204 62.8312 10.0031 62.2539 11.1685L62.1608 11.3555L63.9485 12.0099L64.023 11.8603C64.4203 11.0626 65.0224 10.4207 65.817 9.95325C66.6115 9.4796 67.5613 9.24278 68.6351 9.24278C70.2056 9.24278 71.3291 9.62294 71.9809 10.377C72.6079 11.1062 72.9865 12.1906 73.1169 13.6054C71.4719 13.6303 69.9387 13.6926 68.542 13.7986C67.0833 13.9107 65.8046 14.16 64.7493 14.5464C63.6754 14.9391 62.825 15.5374 62.2167 16.3102C61.6022 17.0954 61.2918 18.1549 61.2918 19.4574C61.2918 20.2676 61.447 21.0155 61.7511 21.6824C62.0553 22.3492 62.4712 22.9226 62.9864 23.4025C63.5016 23.8761 64.1099 24.2438 64.7928 24.5056C65.4756 24.7611 66.1956 24.892 66.9343 24.892C67.4992 24.892 68.1013 24.7736 68.7345 24.5367C69.3614 24.2999 69.9759 23.9447 70.5656 23.4773C71.1553 23.0098 71.7078 22.4302 72.2168 21.7509C72.5644 21.2835 72.8748 20.7725 73.1417 20.2116C73.1727 20.9906 73.241 21.6948 73.359 22.3118C73.5141 23.1469 73.6569 23.7577 73.7935 24.1129L73.8369 24.2314H75.873L75.7674 23.9821ZM73.1107 15.5062C73.1107 17.2138 72.763 17.9929 72.223 18.9526C71.683 19.9249 71.2671 20.3798 70.5843 21.0529C69.9821 21.6512 69.2807 22.1685 68.6724 22.4926C67.5302 23.1096 66.4439 23.0784 65.5066 22.7294C65.0659 22.5611 64.6624 22.3243 64.321 22.0127C63.9796 21.7011 63.7127 21.3271 63.514 20.8909C63.3216 20.4546 63.2223 19.9747 63.2223 19.4574C63.2223 18.5912 63.4644 17.8932 63.9423 17.3821C64.4265 16.8648 65.1093 16.466 65.9722 16.2042C66.8474 15.9362 67.9089 15.7555 69.1379 15.6682C70.3049 15.581 71.7264 15.5311 73.1107 15.5062Z" fill="#1670E4"/>
<path d="M83.5454 8.44471C82.4653 9.08664 81.5653 9.90306 80.8825 10.9065C80.839 10.5824 80.7769 10.2708 80.7087 9.97162C80.5969 9.51666 80.4852 9.12403 80.3797 8.79372C80.2431 8.38862 80.0879 8.03338 79.9017 7.74047L79.821 7.60959L78.2319 8.22035L78.294 8.39486C78.4181 8.73763 78.5423 9.10533 78.6478 9.49796C78.7533 9.84074 78.8464 10.2271 78.9209 10.6572C78.9954 11.081 79.0327 11.5359 79.0327 12.0033V24.2373H80.9383V15.7427C80.9383 14.8764 81.1121 14.0413 81.4597 13.256C81.8074 12.4708 82.2915 11.779 82.9061 11.1994C83.5206 10.6135 84.2717 10.1399 85.1345 9.79088C85.7677 9.53536 86.3884 9.37332 87.0526 9.29853C87.363 9.26114 87.6796 9.30477 87.6796 9.30477L87.692 9.26114L88.2196 7.379C88.1637 7.36653 85.8235 7.07985 83.5454 8.44471Z" fill="#1670E4"/>
<path d="M119.79 12.1283C119.492 11.181 119.033 10.3397 118.431 9.63541C117.829 8.93116 117.053 8.3578 116.128 7.94647C115.203 7.53514 114.117 7.32324 112.9 7.32324C111.615 7.32324 110.473 7.57253 109.517 8.06488C108.561 8.55723 107.754 9.21785 107.115 10.0343C106.482 10.8507 106.004 11.7855 105.693 12.8201C105.383 13.8484 105.228 14.9204 105.228 16.011C105.228 17.1203 105.389 18.211 105.712 19.2642C106.035 20.3237 106.519 21.2773 107.165 22.0999C107.81 22.9288 108.63 23.6081 109.592 24.1192C110.56 24.6365 111.721 24.8982 113.031 24.8982C114.384 24.8982 115.613 24.5928 116.687 23.9883C117.754 23.3838 118.655 22.5175 119.368 21.4019L119.468 21.2399L117.841 20.2614L117.748 20.4234C117.264 21.2461 116.612 21.8818 115.805 22.3243C114.998 22.7668 114.067 22.9911 113.031 22.9911C111.348 22.9911 109.977 22.4427 108.965 21.3583C107.978 20.305 107.4 18.8405 107.245 16.9895H118.164C118.946 16.9895 119.474 16.8274 119.784 16.4847C120.088 16.1544 120.244 15.7119 120.244 15.1634C120.244 14.0852 120.088 13.0694 119.79 12.1283ZM118.338 15.0637H107.252C107.425 13.3062 108.003 11.8853 108.965 10.8445C109.958 9.77252 111.28 9.23031 112.9 9.23031C113.807 9.23031 114.613 9.39235 115.29 9.70396C115.973 10.0218 116.544 10.4581 116.991 11.0003C117.444 11.5487 117.785 12.1906 118.003 12.9073C118.208 13.5804 118.319 14.3034 118.338 15.0637Z" fill="#1670E4"/>
<path d="M137.308 23.982C137.264 23.876 137.202 23.7015 137.115 23.4647C137.028 23.2279 136.941 22.9412 136.861 22.6109C136.774 22.2806 136.705 21.9129 136.65 21.514C136.594 21.1214 136.569 20.7038 136.569 20.2738V14.0727C136.569 12.9384 136.408 11.935 136.085 11.0874C135.762 10.2336 135.309 9.52313 134.75 8.96846C134.185 8.41379 133.527 7.99623 132.789 7.72824C131.175 7.13618 129.362 7.17357 127.5 8.01492C126.575 8.43248 125.694 9.06818 124.868 9.90953C124.812 9.7101 124.75 9.51067 124.694 9.31123C124.607 9.01208 124.502 8.73163 124.396 8.48858C124.284 8.22059 124.16 7.96507 124.024 7.7407L123.943 7.60983L122.354 8.22059L122.416 8.39509C122.54 8.73787 122.664 9.10557 122.77 9.4982C122.875 9.84098 122.969 10.2274 123.043 10.6574C123.117 11.0812 123.155 11.5361 123.155 12.0036V24.2375H125.091V12.6455C125.892 11.4551 126.774 10.5826 127.711 10.0591C128.661 9.52936 129.586 9.26138 130.467 9.26138C131.032 9.26138 131.578 9.35486 132.093 9.52936C132.596 9.70387 133.049 9.99055 133.428 10.3707C133.813 10.7571 134.117 11.2557 134.334 11.8602C134.558 12.471 134.669 13.2126 134.669 14.0602V20.2613C134.669 21.1027 134.75 21.8755 134.905 22.5486C135.061 23.2216 135.203 23.7389 135.34 24.1004L135.383 24.2188H137.419L137.308 23.982Z" fill="#1670E4"/>
<path d="M98.6354 37.1125C98.6354 37.1125 98.983 37.2558 99.4299 37.5612C99.7651 37.3493 100.15 37.0065 100.293 36.4768C100.634 34.9374 99.2065 34.2893 99.1258 34.2519L99.1133 34.2456L99.1009 34.2394C98.145 33.7782 96.5621 33.0615 95.5813 32.6128C95.3144 32.5006 95.0537 32.3822 94.8054 32.27C93.1542 31.572 91.8321 30.8366 90.8823 30.0887L90.8389 30.0513C90.1126 29.478 89.5726 28.7862 89.225 28.0508C88.9146 28.3936 88.7035 28.7862 88.5918 29.2474C88.2628 30.6247 88.9642 32.0581 90.2926 33.0678H90.2988C90.9816 33.5913 92.2417 34.389 94.464 35.2864C95.3951 35.6853 97.3008 36.4955 98.6354 37.1125Z" fill="#1670E4"/>
<path d="M104.21 31.3602C102.863 30.3007 100.324 29.2724 97.903 28.3064L97.8906 28.3002C96.078 27.5835 94.5138 26.8855 93.3157 26.0815L93.3033 26.0753C92.6205 25.6141 92.2481 24.9223 92.4095 24.2555C92.5212 23.7756 92.9929 23.3455 93.3778 23.1773C93.9799 22.9155 95.2214 22.9841 95.6621 22.9404C99.579 22.5665 102.664 19.2447 102.664 15.1377C102.664 13.5983 102.23 12.1275 101.429 10.8623C101.683 10.7128 101.919 10.5507 102.118 10.3637C102.658 9.88387 103.136 9.17962 103.552 8.25101L101.956 7.59039C101.311 8.94279 100.187 9.28557 100.107 9.32296C99.5976 8.8867 98.9272 8.39436 98.443 8.1326C97.394 7.56547 96.227 7.30371 95.029 7.30371C90.8142 7.30371 87.4001 10.8187 87.4001 15.1314C87.4001 18.1603 89.0823 20.7965 91.5466 22.0929C90.3548 22.498 89.5851 23.2396 89.3368 24.2679C89.0078 25.639 89.7092 27.0787 91.0314 28.0883H91.0376C91.7266 28.6118 92.9867 29.4033 95.2028 30.307C96.1463 30.7183 98.5113 31.7591 99.8397 32.3761C99.8397 32.3761 102.987 33.7347 102.366 36.3585C102.136 37.2061 101.516 37.8729 100.671 38.3092C100.671 38.3092 99.1134 39.3749 94.9172 39.1256L94.7372 39.8735C94.7372 39.8735 102.614 40.8333 105.395 37.4554L105.433 37.418C105.786 36.988 106.047 36.4894 106.177 35.9409C106.575 34.3143 105.749 32.588 104.21 31.3602ZM89.3989 15.1501C89.3989 11.8221 91.9315 9.23571 95.0414 9.23571C98.1451 9.23571 100.684 11.8221 100.684 15.1501C100.684 18.4781 98.1513 21.0645 95.0414 21.0645C91.9315 21.0645 89.3989 18.4781 89.3989 15.1501Z" fill="#1670E4"/>
<path d="M139.437 3.71467L144.068 2.9668V7.80926H149.636V11.6795H144.068V17.4568C144.068 18.4353 144.241 19.2143 144.583 19.8001C144.924 20.386 145.613 20.6726 146.65 20.6726C147.146 20.6726 147.662 20.6228 148.189 20.5355C148.717 20.442 149.201 20.3112 149.636 20.1429L150.287 23.7638C149.729 23.9944 149.108 24.1939 148.419 24.3559C147.736 24.5242 146.892 24.6052 145.899 24.6052C144.632 24.6052 143.59 24.4307 142.758 24.0879C141.926 23.7451 141.268 23.2653 140.765 22.6545C140.269 22.0437 139.921 21.2959 139.722 20.4233C139.524 19.5508 139.431 18.5786 139.431 17.5191V3.71467H139.437Z" fill="#1670E4"/>
<path d="M151.405 16.1412C151.405 14.6829 151.628 13.4115 152.075 12.3146C152.522 11.224 153.106 10.3141 153.832 9.58489C154.558 8.85572 155.39 8.30728 156.333 7.92711C157.277 7.55318 158.245 7.36621 159.238 7.36621C161.56 7.36621 163.397 8.07669 164.744 9.50388C166.091 10.9311 166.768 13.0251 166.768 15.7985C166.768 16.0664 166.756 16.3656 166.737 16.6897C166.718 17.0137 166.694 17.3004 166.675 17.5497H156.166C156.271 18.5095 156.712 19.2698 157.5 19.8307C158.289 20.3916 159.344 20.6721 160.672 20.6721C161.523 20.6721 162.355 20.5973 163.174 20.4353C163.993 20.2794 164.664 20.0862 165.179 19.8557L165.8 23.6324C165.551 23.757 165.216 23.8817 164.806 24.0063C164.397 24.131 163.931 24.2432 163.422 24.3366C162.913 24.4301 162.367 24.5112 161.79 24.5735C161.206 24.6358 160.629 24.667 160.045 24.667C158.574 24.667 157.296 24.4488 156.203 24.0126C155.111 23.5763 154.21 22.978 153.497 22.2177C152.783 21.4573 152.255 20.5599 151.908 19.5191C151.579 18.4721 151.405 17.3503 151.405 16.1412ZM162.293 14.365C162.274 13.9724 162.206 13.586 162.088 13.2121C161.976 12.8381 161.796 12.5016 161.56 12.2149C161.324 11.922 161.02 11.6852 160.66 11.4982C160.294 11.3112 159.847 11.2177 159.307 11.2177C158.785 11.2177 158.345 11.305 157.972 11.4857C157.6 11.6602 157.289 11.8971 157.041 12.19C156.793 12.4829 156.6 12.8194 156.464 13.2058C156.327 13.5922 156.228 13.9849 156.166 14.3775H162.293V14.365Z" fill="#1670E4"/>
<path d="M168.978 16.0166C168.978 14.8325 169.17 13.7106 169.555 12.6574C169.94 11.6041 170.492 10.688 171.219 9.90897C171.945 9.12994 172.826 8.50671 173.863 8.05176C174.9 7.5968 176.079 7.36621 177.407 7.36621C178.276 7.36621 179.077 7.441 179.803 7.60304C180.53 7.75884 181.231 7.9832 181.92 8.27612L180.958 11.9905C180.523 11.8223 180.045 11.6789 179.53 11.5543C179.009 11.4296 178.432 11.3673 177.786 11.3673C176.414 11.3673 175.396 11.7911 174.72 12.6449C174.043 13.4988 173.708 14.6206 173.708 16.0166C173.708 17.4936 174.024 18.6404 174.657 19.4506C175.291 20.2608 176.396 20.6658 177.972 20.6658C178.531 20.6658 179.133 20.616 179.779 20.51C180.424 20.4041 181.014 20.2421 181.554 20.0115L182.206 23.8194C181.666 24.05 180.989 24.2432 180.182 24.4114C179.375 24.5797 178.481 24.6607 177.507 24.6607C176.017 24.6607 174.726 24.4364 173.652 23.9876C172.578 23.5389 171.69 22.9344 170.995 22.1616C170.3 21.3888 169.791 20.4789 169.468 19.4319C169.145 18.3848 168.978 17.2443 168.978 16.0166Z" fill="#1670E4"/>
<path d="M0 16.0166C0 14.8325 0.192429 13.7106 0.577288 12.6574C0.962147 11.6041 1.51461 10.688 2.24087 9.90897C2.96714 9.12994 3.84859 8.50671 4.88522 8.05176C5.92186 7.5968 7.10126 7.36621 8.42965 7.36621C9.29868 7.36621 10.0994 7.441 10.8257 7.60304C11.552 7.75884 12.2534 7.9832 12.9424 8.27612L11.9803 11.9905C11.5458 11.8223 11.0678 11.6789 10.5526 11.5543C10.0312 11.4296 9.45387 11.3673 8.8083 11.3673C7.43646 11.3673 6.41845 11.7911 5.74184 12.6449C5.06524 13.4988 4.73004 14.6206 4.73004 16.0166C4.73004 17.4936 5.04662 18.6404 5.67977 19.4506C6.31292 20.2608 7.41784 20.6658 8.98831 20.6658C9.54698 20.6658 10.1491 20.616 10.7947 20.51C11.4402 20.4041 12.0299 20.2421 12.57 20.0115L13.2218 23.8194C12.6817 24.05 12.0113 24.2432 11.1981 24.4114C10.3912 24.5797 9.49732 24.6607 8.52276 24.6607C7.02677 24.6607 5.74184 24.4364 4.66796 23.9876C3.58788 23.5389 2.70022 22.9344 2.0112 22.1616C1.31597 21.3888 0.806962 20.4789 0.484177 19.4319C0.161392 18.3848 0 17.2443 0 16.0166Z" fill="#1670E4"/>
<path d="M22.266 24.5426C20.919 24.5239 19.8265 24.3744 18.9823 24.1064C18.1381 23.8384 17.4801 23.4582 16.9897 22.9659C16.4993 22.4798 16.1703 21.8815 15.9965 21.1834C15.8227 20.4854 15.7296 19.7002 15.7296 18.8277V0.747871L20.3665 0V17.8928C20.3665 18.3104 20.3975 18.6843 20.4596 19.0146C20.5217 19.3512 20.6396 19.6316 20.8196 19.856C20.9997 20.0866 21.248 20.2735 21.5832 20.4169C21.9121 20.5602 22.3591 20.6537 22.9177 20.6973L22.266 24.5426Z" fill="#1670E4"/>
<path d="M38.939 23.6697C38.1507 23.9003 37.1327 24.1122 35.8912 24.3116C34.6497 24.511 33.34 24.6108 31.9743 24.6108C30.5839 24.6108 29.4293 24.4238 28.5044 24.0499C27.5795 23.6759 26.8532 23.1524 26.3132 22.4731C25.7731 21.8 25.3883 20.9898 25.1648 20.055C24.9351 19.1201 24.8234 18.0856 24.8234 16.9638V7.80859H29.4541V16.3904C29.4541 17.8862 29.6528 18.9706 30.0438 19.6374C30.4349 20.3043 31.1736 20.6346 32.2537 20.6346C32.5889 20.6346 32.9365 20.6159 33.3151 20.5847C33.6876 20.5536 34.0166 20.5162 34.3083 20.4788V7.80859H38.9452V23.6697H38.939Z" fill="#1670E4"/>
<path d="M57.9088 16.0169C57.9088 17.3257 57.7164 18.516 57.3315 19.5755C56.9467 20.635 56.3942 21.5449 55.6679 22.2928C54.9417 23.0407 54.0478 23.6203 52.9926 24.0254C51.9373 24.4304 50.7331 24.6361 49.3861 24.6361C48.8274 24.6361 48.2377 24.6112 47.6294 24.5613C47.021 24.5115 46.4189 24.4429 45.823 24.3557C45.2333 24.2746 44.6684 24.1749 44.1284 24.0565C43.5883 23.9381 43.1104 23.8197 42.7007 23.695V0.747871L47.3314 0V8.18295C47.8528 7.95236 48.3929 7.77786 48.9515 7.65321C49.5102 7.52857 50.1123 7.46624 50.7579 7.46624C51.9187 7.46624 52.9429 7.67191 53.8368 8.07701C54.7306 8.4821 55.4755 9.0617 56.0776 9.80957C56.6797 10.5574 57.1329 11.4611 57.4433 12.5081C57.7536 13.5552 57.9088 14.7268 57.9088 16.0169ZM53.1788 15.8923C53.1788 12.8945 52.0801 11.3988 49.8826 11.3988C49.4047 11.3988 48.9329 11.4611 48.4674 11.5858C48.0018 11.7104 47.6232 11.8662 47.3314 12.0532V20.5166C47.5611 20.5602 47.8528 20.5914 48.2004 20.6225C48.5543 20.6537 48.9391 20.6724 49.3488 20.6724C50.6151 20.6724 51.5648 20.2361 52.2104 19.3636C52.856 18.4849 53.1788 17.3319 53.1788 15.8923Z" fill="#1670E4"/>
</g>
<defs>
<clipPath id="clip0">
<rect width="182" height="40" fill="white"/>
</clipPath>
</defs>
</svg>
